<svg xmlns="http://www.w3.org/2000/svg" viewBox="0 0 512 512">
  <!-- Background -->
  <rect width="512" height="512" rx="114" fill="#0C0A08"/>
  <!-- Outer ring -->
  <circle cx="256" cy="256" r="185" fill="none" stroke="#F0ECE8" stroke-width="12"/>
  <!-- Inner ring -->
  <circle cx="256" cy="256" r="130" fill="none" stroke="#F0ECE8" stroke-width="6" opacity="0.2"/>
  <!-- Tick marks -->
  <line x1="256" y1="71" x2="256" y2="101" stroke="#F0ECE8" stroke-width="10" stroke-linecap="round" opacity="0.65"/>
  <line x1="441" y1="256" x2="411" y2="256" stroke="#F0ECE8" stroke-width="10" stroke-linecap="round" opacity="0.65"/>
  <line x1="256" y1="441" x2="256" y2="411" stroke="#F0ECE8" stroke-width="10" stroke-linecap="round" opacity="0.65"/>
  <line x1="71" y1="256" x2="101" y2="256" stroke="#F0ECE8" stroke-width="10" stroke-linecap="round" opacity="0.65"/>
  <!-- Minor ticks -->
  <line x1="371" y1="88" x2="358" y2="109" stroke="#F0ECE8" stroke-width="5" stroke-linecap="round" opacity="0.3"/>
  <line x1="441" y1="141" x2="420" y2="154" stroke="#F0ECE8" stroke-width="5" stroke-linecap="round" opacity="0.3"/>
  <line x1="441" y1="371" x2="420" y2="358" stroke="#F0ECE8" stroke-width="5" stroke-linecap="round" opacity="0.3"/>
  <line x1="371" y1="424" x2="358" y2="403" stroke="#F0ECE8" stroke-width="5" stroke-linecap="round" opacity="0.3"/>
  <line x1="141" y1="424" x2="154" y2="403" stroke="#F0ECE8" stroke-width="5" stroke-linecap="round" opacity="0.3"/>
  <line x1="71" y1="371" x2="92" y2="358" stroke="#F0ECE8" stroke-width="5" stroke-linecap="round" opacity="0.3"/>
  <line x1="71" y1="141" x2="92" y2="154" stroke="#F0ECE8" stroke-width="5" stroke-linecap="round" opacity="0.3"/>
  <line x1="141" y1="88" x2="154" y2="109" stroke="#F0ECE8" stroke-width="5" stroke-linecap="round" opacity="0.3"/>
  <!-- Needle at -30deg -->
  <line x1="256" y1="256" x2="216" y2="95" stroke="#FFD24A" stroke-width="14" stroke-linecap="round"/>
  <line x1="256" y1="256" x2="268" y2="296" stroke="#FFD24A" stroke-width="9" stroke-linecap="round" opacity="0.45"/>
  <!-- Centre dot -->
  <circle cx="256" cy="256" r="26" fill="#FFD24A"/>
  <circle cx="256" cy="256" r="13" fill="#0C0A08"/>
</svg>
